# xmcd
#
# Track frame offsets: 
#        183
#        18970
#        34558
#        54033
#        67958
#        88983
#        104720
#        121508
#        135995
#        151595
#        169045
#        184083
#        206558
#        222958
#        238458
#        251508
#
# Disc length: 3478 seconds
#
# Revision: 0
# Processed by: cddbd v1.5.2PL0 Copyright (c) Steve Scherf et al.
# Submitted via: ExactAudioCopy v0.99pb4
#
DISCID=ce0d9410
DTITLE=Gil Ventura -  Sammer Sax 3
DYEAR=1997
DGENRE=Instrumental Pop
TTITLE0=Chupeta
TTITLE1=Topolino "Twist"
TTITLE2=Una Lacrima Sul Viso
TTITLE3=Manana
TTITLE4=Baker Street
TTITLE5=Africa
TTITLE6=Luna Latina
TTITLE7=Honky Thonk Train Blues
TTITLE8=Love Hangover
TTITLE9=Guapa
TTITLE10=Scotch Machine
TTITLE11=One For You One For Me
TTITLE12=Bobo Step
TTITLE13=That's The Way
TTITLE14=La Virgen De La Macarena
TTITLE15=Limbo Rock
EXTD=
EXTT0=
EXTT1=
EXTT2=
EXTT3=
EXTT4=
EXTT5=
EXTT6=
EXTT7=
EXTT8=
EXTT9=
EXTT10=
EXTT11=
EXTT12=
EXTT13=
EXTT14=
EXTT15=
PLAYORDER=
